<mxfile host="app.diagrams.net" modified="2023-03-28T11:25:16.920Z" agent="5.0 (Windows NT 10.0; Win64; x64) AppleWebKit/537.36 (KHTML, like Gecko) Chrome/111.0.0.0 Safari/537.36" etag="yJGrjQ8JrWFE5Jy3_PVD" version="14.8.6" type="github">
  <diagram id="sW4C0n-4Pscy0GUnCI6L" name="Page-1">
    <mxGraphModel dx="1422" dy="721" grid="1" gridSize="10" guides="1" tooltips="1" connect="1" arrows="1" fold="1" page="1" pageScale="1" pageWidth="850" pageHeight="1100" math="0" shadow="0">
      <root>
        <mxCell id="0" />
        <mxCell id="1" parent="0" />
        <mxCell id="XM2H1b0zSWUE4Bg7FM9N-1" value="User" style="shape=umlActor;verticalLabelPosition=bottom;verticalAlign=top;html=1;outlineConnect=0;" vertex="1" parent="1">
          <mxGeometry x="360" y="50" width="30" height="60" as="geometry" />
        </mxCell>
        <mxCell id="XM2H1b0zSWUE4Bg7FM9N-2" value="web host&lt;br&gt;$2 to $10 per month&lt;br&gt;domain&lt;br&gt;$10+ per year" style="ellipse;shape=cloud;whiteSpace=wrap;html=1;" vertex="1" parent="1">
          <mxGeometry x="340" y="430" width="120" height="80" as="geometry" />
        </mxCell>
        <mxCell id="XM2H1b0zSWUE4Bg7FM9N-7" style="edgeStyle=orthogonalEdgeStyle;rounded=0;orthogonalLoop=1;jettySize=auto;html=1;" edge="1" parent="1" source="XM2H1b0zSWUE4Bg7FM9N-3" target="XM2H1b0zSWUE4Bg7FM9N-4">
          <mxGeometry relative="1" as="geometry" />
        </mxCell>
        <mxCell id="XM2H1b0zSWUE4Bg7FM9N-3" value="Android wrapper&lt;br&gt;Developer account for Google Play costs $25 one time" style="rounded=0;whiteSpace=wrap;html=1;" vertex="1" parent="1">
          <mxGeometry x="200" y="180" width="120" height="60" as="geometry" />
        </mxCell>
        <mxCell id="XM2H1b0zSWUE4Bg7FM9N-4" value="Web app&lt;br&gt;HTML/CSS/JS front&lt;br&gt;PHP/Linux/MySQL/Postgres back" style="rounded=0;whiteSpace=wrap;html=1;" vertex="1" parent="1">
          <mxGeometry x="340" y="290" width="120" height="60" as="geometry" />
        </mxCell>
        <mxCell id="XM2H1b0zSWUE4Bg7FM9N-8" style="edgeStyle=orthogonalEdgeStyle;rounded=0;orthogonalLoop=1;jettySize=auto;html=1;" edge="1" parent="1" source="XM2H1b0zSWUE4Bg7FM9N-5" target="XM2H1b0zSWUE4Bg7FM9N-4">
          <mxGeometry relative="1" as="geometry" />
        </mxCell>
        <mxCell id="XM2H1b0zSWUE4Bg7FM9N-5" value="iPhone wrapper&lt;br&gt;Apple developer account costs $99&lt;br&gt;Usually requires Mac to compile and submit app" style="rounded=0;whiteSpace=wrap;html=1;" vertex="1" parent="1">
          <mxGeometry x="490" y="180" width="120" height="60" as="geometry" />
        </mxCell>
        <mxCell id="XM2H1b0zSWUE4Bg7FM9N-9" value="" style="endArrow=classic;html=1;exitX=0.5;exitY=1;exitDx=0;exitDy=0;" edge="1" parent="1" source="XM2H1b0zSWUE4Bg7FM9N-4" target="XM2H1b0zSWUE4Bg7FM9N-2">
          <mxGeometry width="50" height="50" relative="1" as="geometry">
            <mxPoint x="400" y="360" as="sourcePoint" />
            <mxPoint x="450" y="240" as="targetPoint" />
          </mxGeometry>
        </mxCell>
      </root>
    </mxGraphModel>
  </diagram>
</mxfile>
